<?xml version="1.0" standalone="no"?>
<!DOCTYPE svg PUBLIC "-//W3C//DTD SVG 20010904//EN"
 "http://www.w3.org/TR/2001/REC-SVG-20010904/DTD/svg10.dtd">
<svg version="1.0" xmlns="http://www.w3.org/2000/svg"
 width="320.000000pt" height="320.000000pt" viewBox="0 0 320.000000 320.000000"
 preserveAspectRatio="xMidYMid meet">

<g transform="translate(0.000000,320.000000) scale(0.100000,-0.100000)"
fill="#000000" stroke="none">
<path d="M1468 1802 l-28 -17 0 -145 c0 -136 1 -146 21 -158 17 -11 25 -10 52
5 25 15 33 27 35 53 3 32 24 60 44 60 4 0 8 -44 8 -98 0 -94 1 -99 24 -112 21
-11 28 -10 56 10 29 20 36 22 64 12 49 -18 64 -15 81 18 21 41 96 84 134 75
19 -4 32 -2 38 7 5 8 10 -7 13 -42 4 -48 8 -56 38 -73 30 -18 34 -18 57 -3 22
14 25 24 25 75 0 44 4 60 16 65 22 8 24 8 24 -6 0 -7 16 -23 36 -36 33 -22 37
-22 60 -7 29 19 33 77 8 113 -8 12 -13 31 -9 42 6 18 7 18 31 -2 21 -19 24
-30 24 -84 0 -54 -3 -64 -20 -69 -15 -5 -20 -15 -20 -38 0 -27 6 -36 35 -51
l35 -19 50 27 49 27 41 -27 c36 -24 43 -26 65 -14 23 12 25 19 25 89 l0 75 28
-26 c46 -43 89 -63 105 -50 11 9 18 7 36 -12 31 -33 95 -60 125 -52 38 9 82
51 105 101 26 56 29 169 5 203 -15 22 -83 62 -105 62 -31 0 -84 -38 -110 -79
l-29 -45 0 61 c0 60 -1 62 -36 83 -31 20 -39 21 -60 10 -22 -12 -24 -19 -24
-89 l0 -75 -27 26 c-31 29 -88 60 -96 52 -2 -3 -22 6 -42 21 -21 14 -42 25
-48 25 -6 0 -34 -14 -64 -30 l-53 -30 0 34 c0 46 -48 84 -89 70 -21 -8 -27
-17 -31 -54 -3 -25 -11 -55 -18 -67 l-12 -22 -44 30 c-38 27 -46 29 -64 18
-17 -11 -22 -25 -24 -79 l-3 -65 -45 85 c-36 66 -54 89 -83 105 -28 15 -41 17
-54 9 -11 -6 -36 -65 -63 -145 l-45 -134 -3 106 c-2 99 -4 107 -25 116 -17 8
-30 7 -51 -4 -15 -8 -29 -13 -30 -11 -1 2 -13 21 -26 43 -24 42 -58 75 -75 74
-5 -1 -22 -8 -37 -17z m41 -105 l33 -57 32 19 c23 14 36 17 49 10 15 -9 17
-27 17 -140 0 -100 -3 -130 -12 -127 -9 3 -14 37 -16 112 -3 115 -2 113 -52
92 -11 -4 -25 9 -47 46 l-32 53 -1 -102 c0 -85 -3 -103 -15 -103 -13 0 -15 21
-15 131 0 150 5 156 59 66z m764 26 c-3 -21 -12 -53 -19 -72 -13 -30 -12 -36
2 -52 20 -22 24 -90 7 -96 -8 -3 -13 5 -13 20 0 22 -22 57 -36 57 -3 0 -27
-11 -54 -25 l-50 -25 0 -60 c0 -32 -4 -62 -10 -65 -6 -4 -10 40 -10 124 0 76
4 132 10 136 6 4 10 -13 10 -44 0 -59 6 -61 65 -26 46 26 75 74 75 122 0 16 3
33 7 36 15 16 21 5 16 -30z m457 -92 c0 -166 -8 -172 -97 -74 l-62 68 -1 -106
c0 -86 -3 -108 -15 -113 -14 -5 -15 11 -13 127 4 161 10 166 88 73 30 -36 58
-65 63 -65 4 -1 7 46 7 102 0 57 3 107 7 110 19 19 23 -4 23 -122z m-755 -33
c25 -48 28 -59 16 -70 -11 -10 -14 -10 -18 0 -7 19 -24 14 -91 -28 -35 -23
-67 -51 -72 -65 -5 -14 -14 -25 -19 -25 -12 0 85 301 101 311 12 8 24 -8 83
-123z m999 110 c10 -14 16 -44 16 -78 0 -119 -104 -241 -166 -196 -16 12 -19
26 -18 88 0 87 28 148 83 185 43 29 66 29 85 1z m-514 -11 c0 -7 -9 -18 -20
-25 -18 -11 -20 -23 -20 -108 0 -91 1 -95 20 -89 38 12 21 -20 -25 -48 -52
-31 -55 -32 -55 -14 0 7 9 18 21 25 19 12 20 21 17 105 -3 80 -5 92 -20 91
-32 -3 -19 23 25 50 48 29 57 31 57 13z m0 -108 c0 -51 -4 -78 -10 -74 -18 11
-12 155 7 155 2 0 3 -36 3 -81z"/>
<path d="M1887 1663 c-10 -18 -49 -145 -45 -148 2 -2 27 9 56 26 l52 29 -25
50 c-26 51 -30 56 -38 43z"/>
<path d="M2882 1674 c-35 -24 -52 -68 -52 -132 0 -70 16 -91 58 -76 45 16 72
68 72 138 0 83 -26 107 -78 70z m-2 -88 c-6 -19 -18 -40 -27 -48 -15 -12 -16
-9 -11 30 4 23 14 55 24 70 19 27 19 27 22 4 2 -12 -2 -38 -8 -56z"/>
<path d="M832 1743 l-93 -54 -20 26 c-30 38 -94 68 -129 60 -28 -6 -87 -62
-110 -105 -11 -21 -12 -21 -29 12 -22 41 -106 98 -144 98 -29 0 -73 -23 -95
-49 -16 -20 -15 -66 3 -102 14 -26 14 -30 0 -35 -21 -8 -19 -53 5 -92 23 -38
104 -92 137 -92 28 0 100 35 105 51 2 7 18 1 43 -15 50 -34 79 -41 114 -26 56
23 111 104 111 165 0 29 11 31 45 9 23 -15 25 -23 25 -89 0 -73 0 -73 36 -95
29 -19 40 -21 60 -11 24 10 24 13 24 134 l0 123 40 23 c32 18 40 28 40 51 0
24 -7 33 -38 49 l-37 19 -93 -55z m-533 -33 c42 -21 91 -73 91 -96 0 -21 -18
-17 -25 7 -8 25 -91 80 -111 72 -21 -8 -17 -47 9 -69 12 -11 41 -32 63 -47 51
-32 83 -101 65 -136 -15 -27 -33 -27 -85 4 -51 30 -71 50 -85 88 -14 37 3 34
27 -5 22 -37 83 -74 107 -64 31 11 11 48 -50 96 -70 54 -101 103 -91 143 8 33
31 35 85 7z m407 -5 c26 -40 16 -151 -19 -204 -46 -69 -113 -97 -139 -57 -4 6
-8 43 -8 82 0 84 27 146 80 182 43 29 66 28 86 -3z m284 16 c0 -6 -18 -20 -40
-32 l-39 -22 -3 -125 c-2 -89 -7 -127 -15 -130 -10 -3 -13 24 -13 112 0 64 -2
116 -5 116 -4 0 -20 -7 -36 -16 -32 -16 -51 -12 -31 8 18 18 156 97 170 98 6
0 12 -4 12 -9z m-530 -143 c0 -18 -2 -20 -9 -8 -6 8 -7 18 -5 22 9 14 14 9 14
-14z"/>
<path d="M614 1676 c-31 -22 -54 -77 -54 -131 0 -90 37 -110 95 -52 57 57 60
188 5 195 -14 1 -35 -4 -46 -12z m-9 -111 c-10 -19 -21 -33 -25 -30 -12 7 0
76 19 104 l16 25 3 -31 c2 -18 -4 -48 -13 -68z"/>
<path d="M1100 1765 c-12 -15 -110 -299 -110 -320 0 -16 55 -45 85 -45 20 0
28 7 36 29 14 38 95 83 136 75 24 -5 33 -1 45 18 15 23 14 29 -37 124 -65 121
-119 162 -155 119z m140 -122 c25 -49 46 -90 47 -93 2 -3 -2 -12 -8 -20 -8
-11 -12 -12 -16 -2 -7 18 -18 15 -88 -25 -42 -24 -68 -47 -76 -65 -12 -28 -36
-41 -25 -13 3 8 24 75 47 148 40 126 53 157 68 157 4 0 27 -39 51 -87z"/>
<path d="M1152 1602 c-31 -95 -30 -98 26 -66 26 15 49 29 51 30 6 5 -41 104
-49 104 -3 0 -16 -31 -28 -68z"/>
</g>
</svg>
