<?xml version="1.0" standalone="no"?>
<!DOCTYPE svg PUBLIC "-//W3C//DTD SVG 20010904//EN"
 "http://www.w3.org/TR/2001/REC-SVG-20010904/DTD/svg10.dtd">
<svg version="1.0" xmlns="http://www.w3.org/2000/svg"
 width="320.000000pt" height="320.000000pt" viewBox="0 0 320.000000 320.000000"
 preserveAspectRatio="xMidYMid meet">

<g transform="translate(0.000000,320.000000) scale(0.100000,-0.100000)"
fill="#000000" stroke="none">
<path d="M200 1600 l0 -540 1400 0 1400 0 0 540 0 540 -1400 0 -1400 0 0 -540z
m2780 0 l0 -520 -1380 0 -1380 0 0 520 0 520 1380 0 1380 0 0 -520z"/>
<path d="M383 2033 c-12 -2 -33 -15 -47 -28 -20 -19 -26 -34 -26 -68 0 -55 19
-74 122 -120 62 -28 79 -41 84 -62 10 -42 -10 -73 -55 -85 -44 -12 -94 2 -120
33 -7 10 -20 17 -27 17 -40 0 19 -64 75 -81 79 -24 161 25 161 95 0 48 -25 74
-104 110 -85 39 -106 58 -106 95 0 71 126 94 161 30 9 -19 39 -27 39 -11 0 16
-33 53 -60 67 -28 15 -53 17 -97 8z"/>
<path d="M774 2011 c-119 -69 -137 -230 -38 -323 65 -61 147 -73 231 -34 71
33 106 87 111 170 7 118 -72 207 -191 214 -54 3 -68 -1 -113 -27z m192 -26
c72 -42 103 -139 70 -218 -18 -44 -78 -95 -121 -103 -129 -24 -242 95 -206
217 34 113 156 163 257 104z"/>
<path d="M1217 2033 c-18 -17 -1 -23 68 -23 l75 0 2 -187 c2 -136 6 -187 15
-190 10 -4 13 40 15 184 l3 188 72 0 c63 0 73 2 73 18 0 15 -14 17 -158 17
-87 0 -162 -3 -165 -7z"/>
<path d="M1745 1849 c-52 -106 -95 -199 -95 -206 0 -26 19 -12 42 30 l23 42
142 3 141 3 24 -42 c22 -41 48 -62 48 -40 0 6 -44 97 -98 203 -62 122 -104
194 -115 196 -13 3 -39 -40 -112 -189z m158 66 c20 -42 37 -78 37 -80 0 -3
-36 -5 -80 -5 -48 0 -80 4 -80 10 0 17 69 150 78 150 4 0 24 -34 45 -75z m67
-134 c5 -11 10 -22 10 -25 0 -3 -56 -6 -125 -6 l-125 0 12 25 c11 24 14 25
114 25 92 0 104 -2 114 -19z"/>
<path d="M302 1350 c4 -258 21 -274 28 -26 l5 180 68 -76 c37 -41 67 -78 67
-82 0 -4 -10 -20 -21 -36 -35 -47 -7 -110 50 -110 59 0 86 78 42 124 l-22 23
75 79 75 79 1 -177 c0 -151 2 -178 15 -178 13 0 15 29 15 200 0 184 -1 200
-17 200 -10 0 -56 -40 -103 -90 l-85 -90 -79 90 c-117 132 -117 133 -114 -110z
m225 -60 c15 -31 0 -62 -29 -58 -34 5 -44 32 -24 63 20 30 36 29 53 -5z"/>
<path d="M906 1354 c-61 -124 -94 -200 -88 -206 10 -10 14 -6 43 47 l16 30
141 3 141 3 20 -39 c19 -37 51 -63 51 -42 0 6 -44 98 -97 205 -65 128 -103
195 -113 195 -11 0 -49 -67 -114 -196z m157 71 c20 -42 37 -78 37 -80 0 -3
-36 -5 -80 -5 -44 0 -80 2 -80 5 0 12 72 155 79 155 3 0 23 -34 44 -75z m67
-134 c5 -11 10 -22 10 -25 0 -3 -54 -6 -120 -6 -66 0 -120 3 -120 6 0 3 5 14
10 25 10 17 22 19 110 19 88 0 100 -2 110 -19z"/>
<path d="M1342 1350 c2 -123 7 -201 13 -203 6 -1 11 19 13 45 3 44 7 51 68
104 35 31 66 55 67 53 59 -78 173 -209 183 -209 8 0 14 3 14 6 0 3 -40 56 -90
117 l-90 111 93 88 c68 64 87 87 72 88 -13 0 -74 -50 -160 -130 -77 -71 -143
-129 -147 -130 -5 0 -8 59 -8 130 0 110 -2 130 -15 130 -13 0 -15 -26 -13
-200z"/>
<path d="M1842 1351 c2 -126 7 -201 13 -201 16 0 13 392 -3 398 -10 3 -12 -38
-10 -197z"/>
<path d="M2027 1544 c-3 -3 -6 -93 -7 -200 0 -167 2 -194 15 -194 13 0 15 24
16 158 1 86 1 163 0 171 -5 29 23 -1 145 -159 70 -91 132 -168 137 -172 6 -3
16 -4 24 -1 19 7 15 394 -4 401 -10 3 -13 -36 -13 -172 0 -97 -3 -176 -7 -175
-5 0 -68 79 -142 175 -123 160 -147 185 -164 168z"/>
<path d="M2620 1528 c-118 -61 -145 -214 -57 -315 84 -95 220 -95 304 0 58 66
68 153 26 234 -48 92 -177 131 -273 81z m168 -22 c90 -47 126 -150 83 -234
-23 -46 -46 -67 -94 -87 -48 -20 -83 -19 -133 4 -169 77 -116 331 69 331 26 0
60 -6 75 -14z"/>
</g>
</svg>
